<?xml version="1.0" encoding="UTF-8" standalone="no"?>
<!-- Created with Inkscape (http://www.inkscape.org/) -->

<svg
   sodipodi:docname="shower-thoughts-averages-basis-decomposition.svg"
   inkscape:version="1.1.1 (3bf5ae0d25, 2021-09-20, custom)"
   id="svg5"
   version="1.1"
   viewBox="0 0 1600 900"
   height="900"
   width="1600"
   xmlns:inkscape="http://www.inkscape.org/namespaces/inkscape"
   xmlns:sodipodi="http://sodipodi.sourceforge.net/DTD/sodipodi-0.dtd"
   xmlns:xlink="http://www.w3.org/1999/xlink"
   xmlns="http://www.w3.org/2000/svg"
   xmlns:svg="http://www.w3.org/2000/svg"
   xmlns:ns1="http://www.iki.fi/pav/software/textext/">
  <sodipodi:namedview
     id="namedview7"
     pagecolor="#ffffff"
     bordercolor="#999999"
     borderopacity="1"
     inkscape:pageshadow="0"
     inkscape:pageopacity="0"
     inkscape:pagecheckerboard="0"
     inkscape:document-units="px"
     showgrid="true"
     inkscape:zoom="0.70710678"
     inkscape:cx="838.62864"
     inkscape:cy="594.6768"
     inkscape:window-width="1920"
     inkscape:window-height="1080"
     inkscape:window-x="0"
     inkscape:window-y="0"
     inkscape:window-maximized="0"
     inkscape:current-layer="vec-layer"
     inkscape:snap-page="true"
     inkscape:object-paths="true"
     inkscape:object-nodes="true"
     inkscape:snap-midpoints="true"
     inkscape:snap-intersection-paths="true"
     inkscape:snap-bbox="true"
     inkscape:snap-object-midpoints="true"
     inkscape:snap-text-baseline="true"
     showguides="true"
     inkscape:snap-global="true" />
  <defs
     id="defs2">
    <marker
       style="overflow:visible"
       id="DotM"
       refX="0.0"
       refY="0.0"
       orient="auto"
       inkscape:stockid="DotM"
       inkscape:isstock="true">
      <path
         transform="scale(0.4) translate(7.4, 1)"
         style="fill-rule:evenodd;fill:context-stroke;stroke:context-stroke;stroke-width:1.0pt"
         d="M -2.5,-1.0 C -2.5,1.7600000 -4.7400000,4.0 -7.5,4.0 C -10.260000,4.0 -12.5,1.7600000 -12.5,-1.0 C -12.5,-3.7600000 -10.260000,-6.0 -7.5,-6.0 C -4.7400000,-6.0 -2.5,-3.7600000 -2.5,-1.0 z "
         id="path3150" />
    </marker>
    <marker
       style="overflow:visible"
       id="EmptyDiamondM"
       refX="0.0"
       refY="0.0"
       orient="auto"
       inkscape:stockid="EmptyDiamondM"
       inkscape:isstock="true">
      <path
         transform="scale(0.4)"
         style="fill-rule:evenodd;fill:context-fill;stroke:context-stroke;stroke-width:1.0pt"
         d="M 0,-7.0710768 L -7.0710894,0 L 0,7.0710589 L 7.0710462,0 L 0,-7.0710768 z "
         id="path3195" />
    </marker>
    <marker
       style="overflow:visible"
       id="DiamondLstart"
       refX="0.0"
       refY="0.0"
       orient="auto"
       inkscape:stockid="DiamondLstart"
       inkscape:isstock="true">
      <path
         transform="scale(0.8) translate(7,0)"
         style="fill-rule:evenodd;fill:context-stroke;stroke:context-stroke;stroke-width:1.0pt"
         d="M 0,-7.0710768 L -7.0710894,0 L 0,7.0710589 L 7.0710462,0 L 0,-7.0710768 z "
         id="path3174" />
    </marker>
    <marker
       style="overflow:visible"
       id="SquareS"
       refX="0.0"
       refY="0.0"
       orient="auto"
       inkscape:stockid="SquareS"
       inkscape:isstock="true">
      <path
         transform="scale(0.2)"
         style="fill-rule:evenodd;fill:context-stroke;stroke:context-stroke;stroke-width:1.0pt"
         d="M -5.0,-5.0 L -5.0,5.0 L 5.0,5.0 L 5.0,-5.0 L -5.0,-5.0 z "
         id="path3162" />
    </marker>
    <marker
       style="overflow:visible"
       id="DotL"
       refX="0.0"
       refY="0.0"
       orient="auto"
       inkscape:stockid="DotL"
       inkscape:isstock="true">
      <path
         transform="scale(0.8) translate(7.4, 1)"
         style="fill-rule:evenodd;fill:context-stroke;stroke:context-stroke;stroke-width:1.0pt"
         d="M -2.5,-1.0 C -2.5,1.7600000 -4.7400000,4.0 -7.5,4.0 C -10.260000,4.0 -12.5,1.7600000 -12.5,-1.0 C -12.5,-3.7600000 -10.260000,-6.0 -7.5,-6.0 C -4.7400000,-6.0 -2.5,-3.7600000 -2.5,-1.0 z "
         id="path3147" />
    </marker>
    <marker
       style="overflow:visible;"
       id="marker3388"
       refX="0.0"
       refY="0.0"
       orient="auto"
       inkscape:stockid="Arrow1Send"
       inkscape:isstock="true">
      <path
         transform="scale(0.2) rotate(180) translate(6,0)"
         style="fill-rule:evenodd;fill:context-stroke;stroke:context-stroke;stroke-width:1.0pt;"
         d="M 0.0,0.0 L 5.0,-5.0 L -12.5,0.0 L 5.0,5.0 L 0.0,0.0 z "
         id="path3386" />
    </marker>
    <marker
       style="overflow:visible;"
       id="Arrow1Send"
       refX="0.0"
       refY="0.0"
       orient="auto"
       inkscape:stockid="Arrow1Send"
       inkscape:isstock="true">
      <path
         transform="scale(0.2) rotate(180) translate(6,0)"
         style="fill-rule:evenodd;fill:context-stroke;stroke:context-stroke;stroke-width:1.0pt;"
         d="M 0.0,0.0 L 5.0,-5.0 L -12.5,0.0 L 5.0,5.0 L 0.0,0.0 z "
         id="path3101" />
    </marker>
    <marker
       style="overflow:visible"
       id="Arrow2Sstart"
       refX="0.0"
       refY="0.0"
       orient="auto"
       inkscape:stockid="Arrow2Sstart"
       inkscape:isstock="true">
      <path
         transform="scale(0.3) translate(-2.3,0)"
         d="M 8.7185878,4.0337352 L -2.2072895,0.016013256 L 8.7185884,-4.0017078 C 6.9730900,-1.6296469 6.9831476,1.6157441 8.7185878,4.0337352 z "
         style="stroke:context-stroke;fill-rule:evenodd;fill:context-stroke;stroke-width:0.62500000;stroke-linejoin:round"
         id="path3116" />
    </marker>
    <marker
       style="overflow:visible;"
       id="Arrow2Mend"
       refX="0.0"
       refY="0.0"
       orient="auto"
       inkscape:stockid="Arrow2Mend"
       inkscape:isstock="true">
      <path
         transform="scale(0.6) rotate(180) translate(0,0)"
         d="M 8.7185878,4.0337352 L -2.2072895,0.016013256 L 8.7185884,-4.0017078 C 6.9730900,-1.6296469 6.9831476,1.6157441 8.7185878,4.0337352 z "
         style="stroke:context-stroke;fill-rule:evenodd;fill:context-stroke;stroke-width:0.62500000;stroke-linejoin:round;"
         id="path3113" />
    </marker>
    <linearGradient
       inkscape:collect="always"
       id="linearGradient2034">
      <stop
         style="stop-color:#e9ac2d;stop-opacity:0.7764706"
         offset="0"
         id="stop2030" />
      <stop
         style="stop-color:#ebb035;stop-opacity:0.2"
         offset="1"
         id="stop2032" />
    </linearGradient>
    <radialGradient
       inkscape:collect="always"
       xlink:href="#linearGradient2034"
       id="radialGradient4788"
       cx="183.51172"
       cy="1139.9305"
       fx="183.51172"
       fy="1139.9305"
       r="800"
       gradientTransform="matrix(1.7756957,-0.75970378,0.22938969,0.53616453,-403.83752,546.31014)"
       gradientUnits="userSpaceOnUse" />
    <g
       id="g4150">
      <symbol
         overflow="visible"
         id="symbol7029">
        <path
           style="stroke:none;"
           d=""
           id="path9215" />
      </symbol>
      <symbol
         overflow="visible"
         id="symbol1832">
        <path
           style="stroke:none;"
           d="M 4 -3.84375 L 5.375 -5.859375 C 5.59375 -6.171875 5.9375 -6.484375 6.8125 -6.5 L 6.8125 -6.8125 C 6.4375 -6.796875 5.96875 -6.78125 5.71875 -6.78125 C 5.3125 -6.78125 4.828125 -6.78125 4.4375 -6.8125 L 4.4375 -6.5 C 4.828125 -6.484375 5.046875 -6.265625 5.046875 -6.046875 C 5.046875 -5.9375 5.03125 -5.921875 4.96875 -5.8125 L 3.828125 -4.125 L 2.546875 -6.046875 C 2.515625 -6.078125 2.46875 -6.15625 2.46875 -6.203125 C 2.46875 -6.3125 2.6875 -6.484375 3.125 -6.5 L 3.125 -6.8125 C 2.765625 -6.78125 2.046875 -6.78125 1.671875 -6.78125 C 1.359375 -6.78125 0.734375 -6.78125 0.375 -6.8125 L 0.375 -6.5 L 0.5625 -6.5 C 1.109375 -6.5 1.296875 -6.4375 1.484375 -6.15625 L 3.3125 -3.375 L 1.6875 -0.96875 C 1.546875 -0.765625 1.25 -0.3125 0.234375 -0.3125 L 0.234375 0 C 0.59375 -0.015625 1.015625 -0.03125 1.34375 -0.03125 C 1.71875 -0.03125 2.265625 -0.03125 2.625 0 L 2.625 -0.3125 C 2.15625 -0.3125 2 -0.59375 2 -0.765625 C 2 -0.859375 2.03125 -0.890625 2.09375 -1 L 3.515625 -3.09375 L 5.078125 -0.71875 C 5.109375 -0.671875 5.140625 -0.640625 5.140625 -0.609375 C 5.140625 -0.484375 4.921875 -0.3125 4.484375 -0.3125 L 4.484375 0 C 4.828125 -0.03125 5.5625 -0.03125 5.9375 -0.03125 C 6.359375 -0.03125 6.8125 -0.015625 7.234375 0 L 7.234375 -0.3125 L 7.046875 -0.3125 C 6.53125 -0.3125 6.3125 -0.359375 6.109375 -0.671875 Z M 4 -3.84375 "
           id="path2017" />
      </symbol>
    </g>
    <g
       id="g6058">
      <symbol
         overflow="visible"
         id="symbol7945">
        <path
           style="stroke:none;"
           d=""
           id="path4038" />
      </symbol>
      <symbol
         overflow="visible"
         id="symbol1217">
        <path
           style="stroke:none;"
           d="M 4 -3.84375 L 5.375 -5.859375 C 5.59375 -6.171875 5.9375 -6.484375 6.8125 -6.5 L 6.8125 -6.8125 C 6.4375 -6.796875 5.96875 -6.78125 5.71875 -6.78125 C 5.3125 -6.78125 4.828125 -6.78125 4.4375 -6.8125 L 4.4375 -6.5 C 4.828125 -6.484375 5.046875 -6.265625 5.046875 -6.046875 C 5.046875 -5.9375 5.03125 -5.921875 4.96875 -5.8125 L 3.828125 -4.125 L 2.546875 -6.046875 C 2.515625 -6.078125 2.46875 -6.15625 2.46875 -6.203125 C 2.46875 -6.3125 2.6875 -6.484375 3.125 -6.5 L 3.125 -6.8125 C 2.765625 -6.78125 2.046875 -6.78125 1.671875 -6.78125 C 1.359375 -6.78125 0.734375 -6.78125 0.375 -6.8125 L 0.375 -6.5 L 0.5625 -6.5 C 1.109375 -6.5 1.296875 -6.4375 1.484375 -6.15625 L 3.3125 -3.375 L 1.6875 -0.96875 C 1.546875 -0.765625 1.25 -0.3125 0.234375 -0.3125 L 0.234375 0 C 0.59375 -0.015625 1.015625 -0.03125 1.34375 -0.03125 C 1.71875 -0.03125 2.265625 -0.03125 2.625 0 L 2.625 -0.3125 C 2.15625 -0.3125 2 -0.59375 2 -0.765625 C 2 -0.859375 2.03125 -0.890625 2.09375 -1 L 3.515625 -3.09375 L 5.078125 -0.71875 C 5.109375 -0.671875 5.140625 -0.640625 5.140625 -0.609375 C 5.140625 -0.484375 4.921875 -0.3125 4.484375 -0.3125 L 4.484375 0 C 4.828125 -0.03125 5.5625 -0.03125 5.9375 -0.03125 C 6.359375 -0.03125 6.8125 -0.015625 7.234375 0 L 7.234375 -0.3125 L 7.046875 -0.3125 C 6.53125 -0.3125 6.3125 -0.359375 6.109375 -0.671875 Z M 4 -3.84375 "
           id="path7572" />
      </symbol>
    </g>
    <filter
       inkscape:collect="always"
       style="color-interpolation-filters:sRGB"
       id="filter6225"
       x="-0.011791514"
       y="-0.02369186"
       width="1.023583"
       height="1.0473837">
      <feGaussianBlur
         inkscape:collect="always"
         stdDeviation="5.8557238"
         id="feGaussianBlur6227" />
    </filter>
  </defs>
  <g
     inkscape:label="Graph"
     inkscape:groupmode="layer"
     id="layer1"
     transform="translate(0,-180)"
     style="display:inline;opacity:1">
    <path
       id="bggrid"
       style="color:#000000;opacity:0.530672;fill:url(#radialGradient4788);fill-opacity:1;stroke-width:1;-inkscape-stroke:none"
       d="m 78.701172,180 v 85.70312 H 0 v 1 H 78.701172 V 373.1875 H 0 v 1 H 78.701172 V 480.66992 H 0 v 1 H 78.701172 V 588.1543 H 0 v 1 H 78.701172 V 695.63672 H 0 v 1 H 78.701172 V 803.11914 H 0 v 1 H 78.701172 V 910.60352 H 0 v 1 H 78.701172 V 1018.0859 H 0 v 1 H 78.701172 V 1080 h 1 v -60.9141 H 182.51172 V 1080 h 1 v -60.9141 h 102.8125 V 1080 h 1 v -60.9141 H 390.13477 V 1080 h 1 v -60.9141 H 493.94531 V 1080 h 1.00001 v -60.9141 h 102.8125 V 1080 h 0.99999 v -60.9141 H 701.56836 V 1080 h 1 v -60.9141 H 805.37891 V 1080 h 1.00001 v -60.9141 h 102.8125 V 1080 h 0.99999 v -60.9141 H 1013.002 V 1080 h 1 v -60.9141 h 102.8125 V 1080 h 1 v -60.9141 H 1220.625 V 1080 h 1 v -60.9141 h 102.8105 V 1080 h 1 v -60.9141 H 1428.248 V 1080 h 1 v -60.9141 h 102.8106 V 1080 h 1 v -60.9141 H 1600 v -1 h -66.9414 V 911.60352 H 1600 v -1 h -66.9414 V 804.11914 H 1600 v -1 h -66.9414 V 696.63672 H 1600 v -1 h -66.9414 V 589.1543 H 1600 v -1 h -66.9414 V 481.66992 H 1600 v -1 h -66.9414 V 374.1875 H 1600 v -1 h -66.9414 V 266.70312 H 1600 v -1 h -66.9414 V 180 h -1 v 85.70312 H 1429.248 V 180 h -1 v 85.70312 H 1325.4355 V 180 h -1 v 85.70312 H 1221.625 V 180 h -1 v 85.70312 H 1117.8145 V 180 h -1 v 85.70312 H 1014.002 V 180 h -1 v 85.70312 H 910.19141 V 180 h -0.99999 v 85.70312 H 806.37892 V 180 h -1.00001 v 85.70312 H 702.56836 V 180 h -1 v 85.70312 H 598.75781 V 180 h -0.99999 v 85.70312 H 494.94532 V 180 h -1.00001 v 85.70312 H 391.13477 V 180 h -1 v 85.70312 H 287.32422 V 180 h -1 v 85.70312 H 183.51172 V 180 h -1 v 85.70312 H 79.701172 V 180 Z m 1,86.70312 H 182.51172 V 373.1875 H 79.701172 Z m 103.810548,0 h 102.8125 V 373.1875 h -102.8125 z m 103.8125,0 H 390.13477 V 373.1875 H 287.32422 Z m 103.81055,0 H 493.94531 V 373.1875 H 391.13477 Z m 103.81055,0 h 102.8125 V 373.1875 h -102.8125 z m 103.81249,0 H 701.56836 V 373.1875 H 598.75781 Z m 103.81055,0 H 805.37891 V 373.1875 H 702.56836 Z m 103.81056,0 h 102.8125 V 373.1875 h -102.8125 z m 103.81249,0 H 1013.002 V 373.1875 H 910.19141 Z m 103.81059,0 h 102.8125 V 373.1875 H 1014.002 Z m 103.8125,0 H 1220.625 V 373.1875 h -102.8105 z m 103.8105,0 h 102.8105 V 373.1875 H 1221.625 Z m 103.8105,0 H 1428.248 V 373.1875 h -102.8125 z m 103.8125,0 h 102.8106 V 373.1875 H 1429.248 Z M 79.701172,374.1875 H 182.51172 V 480.66992 H 79.701172 Z m 103.810548,0 h 102.8125 v 106.48242 h -102.8125 z m 103.8125,0 H 390.13477 V 480.66992 H 287.32422 Z m 103.81055,0 H 493.94531 V 480.66992 H 391.13477 Z m 103.81055,0 h 102.8125 v 106.48242 h -102.8125 z m 103.81249,0 H 701.56836 V 480.66992 H 598.75781 Z m 103.81055,0 H 805.37891 V 480.66992 H 702.56836 Z m 103.81056,0 h 102.8125 v 106.48242 h -102.8125 z m 103.81249,0 H 1013.002 V 480.66992 H 910.19141 Z m 103.81059,0 h 102.8125 V 480.66992 H 1014.002 Z m 103.8125,0 h 102.8105 v 106.48242 h -102.8105 z m 103.8105,0 h 102.8105 V 480.66992 H 1221.625 Z m 103.8105,0 h 102.8125 v 106.48242 h -102.8125 z m 103.8125,0 h 102.8106 V 480.66992 H 1429.248 Z M 79.701172,481.66992 H 182.51172 V 588.1543 H 79.701172 Z m 103.810548,0 h 102.8125 V 588.1543 h -102.8125 z m 103.8125,0 H 390.13477 V 588.1543 H 287.32422 Z m 103.81055,0 H 493.94531 V 588.1543 H 391.13477 Z m 103.81055,0 h 102.8125 V 588.1543 h -102.8125 z m 103.81249,0 H 701.56836 V 588.1543 H 598.75781 Z m 103.81055,0 H 805.37891 V 588.1543 H 702.56836 Z m 103.81056,0 h 102.8125 V 588.1543 h -102.8125 z m 103.81249,0 H 1013.002 V 588.1543 H 910.19141 Z m 103.81059,0 h 102.8125 V 588.1543 H 1014.002 Z m 103.8125,0 H 1220.625 V 588.1543 h -102.8105 z m 103.8105,0 h 102.8105 V 588.1543 H 1221.625 Z m 103.8105,0 H 1428.248 V 588.1543 h -102.8125 z m 103.8125,0 h 102.8106 V 588.1543 H 1429.248 Z M 79.701172,589.1543 H 182.51172 V 695.63672 H 79.701172 Z m 103.810548,0 h 102.8125 v 106.48242 h -102.8125 z m 103.8125,0 H 390.13477 V 695.63672 H 287.32422 Z m 103.81055,0 H 493.94531 V 695.63672 H 391.13477 Z m 103.81055,0 h 102.8125 v 106.48242 h -102.8125 z m 103.81249,0 H 701.56836 V 695.63672 H 598.75781 Z m 103.81055,0 H 805.37891 V 695.63672 H 702.56836 Z m 103.81056,0 h 102.8125 v 106.48242 h -102.8125 z m 103.81249,0 H 1013.002 V 695.63672 H 910.19141 Z m 103.81059,0 h 102.8125 V 695.63672 H 1014.002 Z m 103.8125,0 h 102.8105 v 106.48242 h -102.8105 z m 103.8105,0 h 102.8105 V 695.63672 H 1221.625 Z m 103.8105,0 h 102.8125 v 106.48242 h -102.8125 z m 103.8125,0 h 102.8106 V 695.63672 H 1429.248 Z M 79.701172,696.63672 H 182.51172 V 803.11914 H 79.701172 Z m 103.810548,0 h 102.8125 v 106.48242 h -102.8125 z m 103.8125,0 H 390.13477 V 803.11914 H 287.32422 Z m 103.81055,0 H 493.94531 V 803.11914 H 391.13477 Z m 103.81055,0 h 102.8125 v 106.48242 h -102.8125 z m 103.81249,0 H 701.56836 V 803.11914 H 598.75781 Z m 103.81055,0 H 805.37891 V 803.11914 H 702.56836 Z m 103.81056,0 h 102.8125 v 106.48242 h -102.8125 z m 103.81249,0 H 1013.002 V 803.11914 H 910.19141 Z m 103.81059,0 h 102.8125 V 803.11914 H 1014.002 Z m 103.8125,0 h 102.8105 v 106.48242 h -102.8105 z m 103.8105,0 h 102.8105 V 803.11914 H 1221.625 Z m 103.8105,0 h 102.8125 v 106.48242 h -102.8125 z m 103.8125,0 h 102.8106 V 803.11914 H 1429.248 Z M 79.701172,804.11914 H 182.51172 V 910.60352 H 79.701172 Z m 103.810548,0 h 102.8125 v 106.48438 h -102.8125 z m 103.8125,0 H 390.13477 V 910.60352 H 287.32422 Z m 103.81055,0 H 493.94531 V 910.60352 H 391.13477 Z m 103.81055,0 h 102.8125 v 106.48438 h -102.8125 z m 103.81249,0 H 701.56836 V 910.60352 H 598.75781 Z m 103.81055,0 H 805.37891 V 910.60352 H 702.56836 Z m 103.81056,0 h 102.8125 v 106.48438 h -102.8125 z m 103.81249,0 H 1013.002 V 910.60352 H 910.19141 Z m 103.81059,0 h 102.8125 V 910.60352 H 1014.002 Z m 103.8125,0 h 102.8105 v 106.48438 h -102.8105 z m 103.8105,0 h 102.8105 V 910.60352 H 1221.625 Z m 103.8105,0 h 102.8125 v 106.48438 h -102.8125 z m 103.8125,0 h 102.8106 V 910.60352 H 1429.248 Z M 79.701172,911.60352 H 182.51172 V 1018.0859 H 79.701172 Z m 103.810548,0 h 102.8125 v 106.48238 h -102.8125 z m 103.8125,0 H 390.13477 V 1018.0859 H 287.32422 Z m 103.81055,0 H 493.94531 V 1018.0859 H 391.13477 Z m 103.81055,0 h 102.8125 v 106.48238 h -102.8125 z m 103.81249,0 H 701.56836 V 1018.0859 H 598.75781 Z m 103.81055,0 H 805.37891 V 1018.0859 H 702.56836 Z m 103.81056,0 h 102.8125 v 106.48238 h -102.8125 z m 103.81249,0 H 1013.002 V 1018.0859 H 910.19141 Z m 103.81059,0 h 102.8125 V 1018.0859 H 1014.002 Z m 103.8125,0 h 102.8105 v 106.48238 h -102.8105 z m 103.8105,0 h 102.8105 V 1018.0859 H 1221.625 Z m 103.8105,0 h 102.8125 v 106.48238 h -102.8125 z m 103.8125,0 h 102.8106 V 1018.0859 H 1429.248 Z" />
    <g
       id="path2870">
      <path
         style="color:#000000;fill:#000000;stroke-linecap:round;stroke-linejoin:bevel;-inkscape-stroke:none"
         d="m 183.64648,314.3418 a 2.5,2.5 0 0 0 -2.5039,2.49609 l -1.18164,702.24411 a 2.5,2.5 0 0 0 2.49414,2.5039 2.5,2.5 0 0 0 2.50586,-2.4961 l 1.18164,-702.24214 a 2.5,2.5 0 0 0 -2.4961,-2.50586 z"
         id="path2181" />
      <g
         id="g2171">
        <g
           id="path2173">
          <path
             style="color:#000000;fill:#000000;fill-rule:evenodd;stroke-width:1pt;-inkscape-stroke:none"
             d="m 183.63282,322.8426 4.99157,5.00842 -4.97051,-17.5084 -5.02947,17.49155 z"
             id="path2177" />
          <path
             style="color:#000000;fill:#000000;fill-rule:evenodd;-inkscape-stroke:none"
             d="m 183.6582,307.91602 -6.38476,22.20703 6.35742,-6.33789 6.33789,6.35937 z m -0.008,4.85546 3.62891,12.78711 -3.64453,-3.6582 -0.47266,0.4707 -3.18555,3.17383 z"
             id="path2179" />
        </g>
      </g>
    </g>
    <g
       id="path2872">
      <path
         style="color:#000000;fill:#000000;stroke-linecap:round;-inkscape-stroke:none"
         d="m 183.64258,1016.5859 a 2.5,2.5 0 0 0 -2.5,2.5 2.5,2.5 0 0 0 2.5,2.5 h 988.08012 a 2.5,2.5 0 0 0 2.5,-2.5 2.5,2.5 0 0 0 -2.5,-2.5 z"
         id="path2195" />
      <g
         id="g2185">
        <g
           id="path2187">
          <path
             style="color:#000000;fill:#000000;fill-rule:evenodd;stroke-width:1pt;-inkscape-stroke:none"
             d="m 1165.7234,1019.086 -5,5 17.5,-5 -17.5,-5 z"
             id="path2191" />
          <path
             style="color:#000000;fill:#000000;fill-rule:evenodd;-inkscape-stroke:none"
             d="m 1158.4336,1012.7383 6.3477,6.3476 -6.3477,6.3477 22.2168,-6.3477 z m 4.5801,2.6953 12.7851,3.6523 -12.7851,3.6524 3.6523,-3.6524 -0.4707,-0.4707 z"
             id="path2193" />
        </g>
      </g>
    </g>
    <g
       transform="matrix(4.66665,0,0,4.66665,1159.8374,1035.1544)"
       ns1:version="1.6.0"
       ns1:texconverter="pdflatex"
       ns1:pdfconverter="inkscape"
       ns1:text="$\\mathbb{I}_1$"
       ns1:preamble="/usr/share/inkscape/extensions/textext/default_packages.tex"
       ns1:scale="3.5"
       ns1:alignment="middle center"
       ns1:stroke-to-path="0"
       ns1:inkscapeversion="1.1.1"
       ns1:jacobian_sqrt="4.66665"
       id="g2418"
       style="display:inline;opacity:1">
      <defs
         id="id-1929aaca-ec6e-4d93-b8dc-fe3339755edf">
        <g
           id="id-59801a6d-3ff2-4c4c-a50d-bdbef7cf2a66">
          <symbol
             overflow="visible"
             id="id-c32882f3-11b7-4316-be33-1e1aef67f374">
            <path
               style="stroke:none;stroke-width:0"
               d=""
               id="id-f6191eba-1988-4be4-9222-681903d92c7d" />
          </symbol>
          <symbol
             overflow="visible"
             id="id-8788704c-0a2b-4044-9946-cb8b75d49da2">
            <path
               style="stroke:none;stroke-width:0"
               d="m 2.75,-5.90625 c 0,-0.46875 0.03125,-0.578125 0.625,-0.578125 0.140625,0 0.296875,0 0.296875,-0.171875 0,-0.171875 -0.140625,-0.171875 -0.328125,-0.171875 h -2.8125 c -0.171875,0 -0.328125,0 -0.328125,0.171875 0,0.171875 0.171875,0.171875 0.328125,0.171875 0.5625,0 0.59375,0.109375 0.59375,0.578125 v 4.984375 c 0,0.484375 -0.03125,0.578125 -0.609375,0.578125 -0.140625,0 -0.3125,0 -0.3125,0.171875 C 0.203125,0 0.359375,0 0.53125,0 h 2.8125 c 0.1875,0 0.328125,0 0.328125,-0.171875 0,-0.171875 -0.15625,-0.171875 -0.265625,-0.171875 C 2.796875,-0.34375 2.75,-0.421875 2.75,-0.921875 Z M 1.46875,-5.9375 c 0,-0.140625 0,-0.359375 -0.078125,-0.546875 H 2.5 c -0.09375,0.1875 -0.09375,0.40625 -0.09375,0.546875 v 5.046875 c 0,0.140625 0,0.359375 0.09375,0.546875 H 1.390625 C 1.46875,-0.53125 1.46875,-0.75 1.46875,-0.890625 Z m 0,0"
               id="id-1a6e6c0d-43df-4aa1-b393-612dd30c3020" />
          </symbol>
          <symbol
             overflow="visible"
             id="id-99149dfe-e7a8-4c85-85d7-ab5559729ed5">
            <path
               style="stroke:none;stroke-width:0"
               d=""
               id="id-59a3fc67-72aa-4c4f-bb6f-a20866e8a466" />
          </symbol>
          <symbol
             overflow="visible"
             id="id-40e116be-4ac0-431d-93d8-509911c91b6a">
            <path
               style="stroke:none;stroke-width:0"
               d="m 2.328125,-4.4375 c 0,-0.1875 0,-0.1875 -0.203125,-0.1875 -0.453125,0.4375 -1.078125,0.4375 -1.359375,0.4375 v 0.25 c 0.15625,0 0.625,0 1,-0.1875 v 3.546875 c 0,0.234375 0,0.328125 -0.6875,0.328125 H 0.8125 V 0 c 0.125,0 0.984375,-0.03125 1.234375,-0.03125 0.21875,0 1.09375,0.03125 1.25,0.03125 V -0.25 H 3.03125 c -0.703125,0 -0.703125,-0.09375 -0.703125,-0.328125 z m 0,0"
               id="id-ea85b9b0-3857-477b-8b98-b380243978fe" />
          </symbol>
        </g>
      </defs>
      <g
         id="id-57f0fdb9-002f-477e-a48c-b54b2e0fe25f"
         transform="translate(-148.915,-127.937)">
        <g
           style="fill:#000000;fill-opacity:1"
           id="id-7722715c-e1ef-4390-8b1d-f9800f74bb4f">
          <g
             transform="translate(148.712,134.765)"
             id="g2410">
            <path
               style="stroke:none;stroke-width:0"
               d="m 2.75,-5.90625 c 0,-0.46875 0.03125,-0.578125 0.625,-0.578125 0.140625,0 0.296875,0 0.296875,-0.171875 0,-0.171875 -0.140625,-0.171875 -0.328125,-0.171875 h -2.8125 c -0.171875,0 -0.328125,0 -0.328125,0.171875 0,0.171875 0.171875,0.171875 0.328125,0.171875 0.5625,0 0.59375,0.109375 0.59375,0.578125 v 4.984375 c 0,0.484375 -0.03125,0.578125 -0.609375,0.578125 -0.140625,0 -0.3125,0 -0.3125,0.171875 C 0.203125,0 0.359375,0 0.53125,0 h 2.8125 c 0.1875,0 0.328125,0 0.328125,-0.171875 0,-0.171875 -0.15625,-0.171875 -0.265625,-0.171875 C 2.796875,-0.34375 2.75,-0.421875 2.75,-0.921875 Z M 1.46875,-5.9375 c 0,-0.140625 0,-0.359375 -0.078125,-0.546875 H 2.5 c -0.09375,0.1875 -0.09375,0.40625 -0.09375,0.546875 v 5.046875 c 0,0.140625 0,0.359375 0.09375,0.546875 H 1.390625 C 1.46875,-0.53125 1.46875,-0.75 1.46875,-0.890625 Z m 0,0"
               id="id-a9fdab34-fd80-4bdd-9d5b-f8eb1337422d" />
          </g>
        </g>
        <g
           style="fill:#000000;fill-opacity:1"
           id="id-4b3e5618-3010-4e84-8c93-813d9d285b0e">
          <g
             transform="translate(152.587,136.259)"
             id="g2414">
            <path
               style="stroke:none;stroke-width:0"
               d="m 2.328125,-4.4375 c 0,-0.1875 0,-0.1875 -0.203125,-0.1875 -0.453125,0.4375 -1.078125,0.4375 -1.359375,0.4375 v 0.25 c 0.15625,0 0.625,0 1,-0.1875 v 3.546875 c 0,0.234375 0,0.328125 -0.6875,0.328125 H 0.8125 V 0 c 0.125,0 0.984375,-0.03125 1.234375,-0.03125 0.21875,0 1.09375,0.03125 1.25,0.03125 V -0.25 H 3.03125 c -0.703125,0 -0.703125,-0.09375 -0.703125,-0.328125 z m 0,0"
               id="id-a70bf2d4-8523-4326-b8df-04b2aeeb6c68" />
          </g>
        </g>
      </g>
    </g>
    <g
       transform="matrix(4.66665,0,0,4.66665,178.1007,265.23903)"
       ns1:version="1.6.0"
       ns1:texconverter="pdflatex"
       ns1:pdfconverter="inkscape"
       ns1:text="$\\mathbb{I}_2$"
       ns1:preamble="/usr/share/inkscape/extensions/textext/default_packages.tex"
       ns1:scale="3.5"
       ns1:alignment="middle center"
       ns1:stroke-to-path="0"
       ns1:inkscapeversion="1.1.1"
       ns1:jacobian_sqrt="4.66665"
       id="g2693"
       style="display:inline;opacity:1">
      <defs
         id="id-8d79a7f4-2007-410b-8e92-b5401814a13c">
        <g
           id="id-a2fc3c7d-fc20-4ed8-a3fd-852887b647ba">
          <symbol
             overflow="visible"
             id="id-edd8caf6-979f-4f15-9a85-9474be51d1dd">
            <path
               style="stroke:none;stroke-width:0"
               d=""
               id="id-99472d65-4309-41ba-9a4f-cbcfb580216e" />
          </symbol>
          <symbol
             overflow="visible"
             id="id-e472d20b-91c0-4d6a-8c6e-f14a769a3889">
            <path
               style="stroke:none;stroke-width:0"
               d="m 2.75,-5.90625 c 0,-0.46875 0.03125,-0.578125 0.625,-0.578125 0.140625,0 0.296875,0 0.296875,-0.171875 0,-0.171875 -0.140625,-0.171875 -0.328125,-0.171875 h -2.8125 c -0.171875,0 -0.328125,0 -0.328125,0.171875 0,0.171875 0.171875,0.171875 0.328125,0.171875 0.5625,0 0.59375,0.109375 0.59375,0.578125 v 4.984375 c 0,0.484375 -0.03125,0.578125 -0.609375,0.578125 -0.140625,0 -0.3125,0 -0.3125,0.171875 C 0.203125,0 0.359375,0 0.53125,0 h 2.8125 c 0.1875,0 0.328125,0 0.328125,-0.171875 0,-0.171875 -0.15625,-0.171875 -0.265625,-0.171875 C 2.796875,-0.34375 2.75,-0.421875 2.75,-0.921875 Z M 1.46875,-5.9375 c 0,-0.140625 0,-0.359375 -0.078125,-0.546875 H 2.5 c -0.09375,0.1875 -0.09375,0.40625 -0.09375,0.546875 v 5.046875 c 0,0.140625 0,0.359375 0.09375,0.546875 H 1.390625 C 1.46875,-0.53125 1.46875,-0.75 1.46875,-0.890625 Z m 0,0"
               id="id-eef408ac-81d0-44f0-b229-af076fe65fa6" />
          </symbol>
          <symbol
             overflow="visible"
             id="id-34938471-f217-4724-bb10-652c480a4476">
            <path
               style="stroke:none;stroke-width:0"
               d=""
               id="id-6b27f867-4eb6-4968-af68-a80f4b4395fc" />
          </symbol>
          <symbol
             overflow="visible"
             id="id-8bf26198-eb6d-416f-a127-fa4d97e7d8a9">
            <path
               style="stroke:none;stroke-width:0"
               d="M 3.515625,-1.265625 H 3.28125 c -0.015625,0.15625 -0.09375,0.5625 -0.1875,0.625 C 3.046875,-0.59375 2.515625,-0.59375 2.40625,-0.59375 H 1.125 c 0.734375,-0.640625 0.984375,-0.84375 1.390625,-1.171875 0.515625,-0.40625 1,-0.84375 1,-1.5 0,-0.84375 -0.734375,-1.359375 -1.625,-1.359375 -0.859375,0 -1.453125,0.609375 -1.453125,1.25 0,0.34375 0.296875,0.390625 0.375,0.390625 0.15625,0 0.359375,-0.125 0.359375,-0.375 0,-0.125 -0.046875,-0.375 -0.40625,-0.375 C 0.984375,-4.21875 1.453125,-4.375 1.78125,-4.375 c 0.703125,0 1.0625,0.546875 1.0625,1.109375 0,0.609375 -0.4375,1.078125 -0.65625,1.328125 L 0.515625,-0.265625 C 0.4375,-0.203125 0.4375,-0.1875 0.4375,0 h 2.875 z m 0,0"
               id="id-e9bdcd86-a780-4a0c-819f-a7e81255b670" />
          </symbol>
        </g>
      </defs>
      <g
         id="id-beb4caa1-df4f-4256-83e4-ceec028747b0"
         transform="translate(-148.915,-127.937)">
        <g
           style="fill:#000000;fill-opacity:1"
           id="id-1a401f59-db01-447d-a622-5296cd165230">
          <g
             transform="translate(148.712,134.765)"
             id="g2685">
            <path
               style="stroke:none;stroke-width:0"
               d="m 2.75,-5.90625 c 0,-0.46875 0.03125,-0.578125 0.625,-0.578125 0.140625,0 0.296875,0 0.296875,-0.171875 0,-0.171875 -0.140625,-0.171875 -0.328125,-0.171875 h -2.8125 c -0.171875,0 -0.328125,0 -0.328125,0.171875 0,0.171875 0.171875,0.171875 0.328125,0.171875 0.5625,0 0.59375,0.109375 0.59375,0.578125 v 4.984375 c 0,0.484375 -0.03125,0.578125 -0.609375,0.578125 -0.140625,0 -0.3125,0 -0.3125,0.171875 C 0.203125,0 0.359375,0 0.53125,0 h 2.8125 c 0.1875,0 0.328125,0 0.328125,-0.171875 0,-0.171875 -0.15625,-0.171875 -0.265625,-0.171875 C 2.796875,-0.34375 2.75,-0.421875 2.75,-0.921875 Z M 1.46875,-5.9375 c 0,-0.140625 0,-0.359375 -0.078125,-0.546875 H 2.5 c -0.09375,0.1875 -0.09375,0.40625 -0.09375,0.546875 v 5.046875 c 0,0.140625 0,0.359375 0.09375,0.546875 H 1.390625 C 1.46875,-0.53125 1.46875,-0.75 1.46875,-0.890625 Z m 0,0"
               id="id-918b77a9-0405-40b9-bf1f-897f4fab442c" />
          </g>
        </g>
        <g
           style="fill:#000000;fill-opacity:1"
           id="id-a0d9d4b1-e35b-4b18-a59d-e198fef9e4c8">
          <g
             transform="translate(152.587,136.259)"
             id="g2689">
            <path
               style="stroke:none;stroke-width:0"
               d="M 3.515625,-1.265625 H 3.28125 c -0.015625,0.15625 -0.09375,0.5625 -0.1875,0.625 C 3.046875,-0.59375 2.515625,-0.59375 2.40625,-0.59375 H 1.125 c 0.734375,-0.640625 0.984375,-0.84375 1.390625,-1.171875 0.515625,-0.40625 1,-0.84375 1,-1.5 0,-0.84375 -0.734375,-1.359375 -1.625,-1.359375 -0.859375,0 -1.453125,0.609375 -1.453125,1.25 0,0.34375 0.296875,0.390625 0.375,0.390625 0.15625,0 0.359375,-0.125 0.359375,-0.375 0,-0.125 -0.046875,-0.375 -0.40625,-0.375 C 0.984375,-4.21875 1.453125,-4.375 1.78125,-4.375 c 0.703125,0 1.0625,0.546875 1.0625,1.109375 0,0.609375 -0.4375,1.078125 -0.65625,1.328125 L 0.515625,-0.265625 C 0.4375,-0.203125 0.4375,-0.1875 0.4375,0 h 2.875 z m 0,0"
               id="id-ae8dd37f-ac22-471f-98a2-28727f444b98" />
          </g>
        </g>
      </g>
    </g>
  </g>
  <g
     inkscape:groupmode="layer"
     id="labels-layer"
     inkscape:label="Labels"
     style="display:inline;opacity:1"
     sodipodi:insensitive="true">
    <g
       transform="matrix(4.66665,0,0,4.66665,119.36652,252.15187)"
       ns1:version="1.6.0"
       ns1:texconverter="pdflatex"
       ns1:pdfconverter="inkscape"
       ns1:text="$x_2$"
       ns1:preamble="/usr/share/inkscape/extensions/textext/default_packages.tex"
       ns1:scale="3.5"
       ns1:alignment="middle center"
       ns1:stroke-to-path="0"
       ns1:inkscapeversion="1.1.1"
       ns1:jacobian_sqrt="4.66665"
       id="g1680">
      <defs
         id="id-e692e843-028a-4ccb-a695-cf632c6ba152">
        <g
           id="id-e3ac56fd-bd22-41fb-b9fd-11edc44fefc5">
          <symbol
             overflow="visible"
             id="id-e19aeb73-410b-44d6-8fe1-ebfbf2085bb4">
            <path
               style="stroke:none;stroke-width:0"
               d=""
               id="id-219b292b-dc7f-450f-af30-e563afcdb382" />
          </symbol>
          <symbol
             overflow="visible"
             id="id-5c1aeaf3-e2a5-4e36-9f9e-a73ab8e84369">
            <path
               style="stroke:none;stroke-width:0"
               d="M 3.328125,-3.015625 C 3.390625,-3.265625 3.625,-4.1875 4.3125,-4.1875 c 0.046875,0 0.296875,0 0.5,0.125 C 4.53125,-4 4.34375,-3.765625 4.34375,-3.515625 c 0,0.15625 0.109375,0.34375 0.375,0.34375 0.21875,0 0.53125,-0.171875 0.53125,-0.578125 0,-0.515625 -0.578125,-0.65625 -0.921875,-0.65625 -0.578125,0 -0.921875,0.53125 -1.046875,0.75 -0.25,-0.65625 -0.78125,-0.75 -1.078125,-0.75 -1.03125,0 -1.609375,1.28125 -1.609375,1.53125 0,0.109375 0.109375,0.109375 0.125,0.109375 0.078125,0 0.109375,-0.03125 0.125,-0.109375 0.34375,-1.0625 1,-1.3125 1.34375,-1.3125 0.1875,0 0.53125,0.09375 0.53125,0.671875 0,0.3125 -0.171875,0.96875 -0.53125,2.375 -0.15625,0.609375 -0.515625,1.03125 -0.953125,1.03125 -0.0625,0 -0.28125,0 -0.5,-0.125 0.25,-0.0625 0.46875,-0.265625 0.46875,-0.546875 0,-0.265625 -0.21875,-0.34375 -0.359375,-0.34375 -0.3125,0 -0.546875,0.25 -0.546875,0.578125 0,0.453125 0.484375,0.65625 0.921875,0.65625 0.671875,0 1.03125,-0.703125 1.046875,-0.75 0.125,0.359375 0.484375,0.75 1.078125,0.75 1.03125,0 1.59375,-1.28125 1.59375,-1.53125 0,-0.109375 -0.078125,-0.109375 -0.109375,-0.109375 -0.09375,0 -0.109375,0.046875 -0.140625,0.109375 -0.328125,1.078125 -1,1.3125 -1.3125,1.3125 -0.390625,0 -0.546875,-0.3125 -0.546875,-0.65625 0,-0.21875 0.046875,-0.4375 0.15625,-0.875 z m 0,0"
               id="id-7e26d76d-64e6-4843-bb7d-47e7d0812302" />
          </symbol>
          <symbol
             overflow="visible"
             id="id-5ea3a122-0ed5-44a4-83d8-c9d77eda4a2b">
            <path
               style="stroke:none;stroke-width:0"
               d=""
               id="id-36eaa64c-7110-47d0-83fd-b471a82e2b0c" />
          </symbol>
          <symbol
             overflow="visible"
             id="id-0d266138-eb31-45d2-a0d8-ffb6237b4dc3">
            <path
               style="stroke:none;stroke-width:0"
               d="M 3.515625,-1.265625 H 3.28125 c -0.015625,0.15625 -0.09375,0.5625 -0.1875,0.625 C 3.046875,-0.59375 2.515625,-0.59375 2.40625,-0.59375 H 1.125 c 0.734375,-0.640625 0.984375,-0.84375 1.390625,-1.171875 0.515625,-0.40625 1,-0.84375 1,-1.5 0,-0.84375 -0.734375,-1.359375 -1.625,-1.359375 -0.859375,0 -1.453125,0.609375 -1.453125,1.25 0,0.34375 0.296875,0.390625 0.375,0.390625 0.15625,0 0.359375,-0.125 0.359375,-0.375 0,-0.125 -0.046875,-0.375 -0.40625,-0.375 C 0.984375,-4.21875 1.453125,-4.375 1.78125,-4.375 c 0.703125,0 1.0625,0.546875 1.0625,1.109375 0,0.609375 -0.4375,1.078125 -0.65625,1.328125 L 0.515625,-0.265625 C 0.4375,-0.203125 0.4375,-0.1875 0.4375,0 h 2.875 z m 0,0"
               id="id-479f5d96-e31b-46f0-8b86-6c3c22a41a03" />
          </symbol>
        </g>
      </defs>
      <g
         id="id-644ee92b-8d65-4854-95bd-7b4b7d2b3e78"
         transform="translate(-149.009,-130.359)">
        <g
           style="fill:#000000;fill-opacity:1"
           id="id-ace2eb30-ab10-4158-a41d-0b10eb5b2aef">
          <g
             transform="translate(148.712,134.765)"
             id="g1672">
            <path
               style="stroke:none;stroke-width:0"
               d="M 3.328125,-3.015625 C 3.390625,-3.265625 3.625,-4.1875 4.3125,-4.1875 c 0.046875,0 0.296875,0 0.5,0.125 C 4.53125,-4 4.34375,-3.765625 4.34375,-3.515625 c 0,0.15625 0.109375,0.34375 0.375,0.34375 0.21875,0 0.53125,-0.171875 0.53125,-0.578125 0,-0.515625 -0.578125,-0.65625 -0.921875,-0.65625 -0.578125,0 -0.921875,0.53125 -1.046875,0.75 -0.25,-0.65625 -0.78125,-0.75 -1.078125,-0.75 -1.03125,0 -1.609375,1.28125 -1.609375,1.53125 0,0.109375 0.109375,0.109375 0.125,0.109375 0.078125,0 0.109375,-0.03125 0.125,-0.109375 0.34375,-1.0625 1,-1.3125 1.34375,-1.3125 0.1875,0 0.53125,0.09375 0.53125,0.671875 0,0.3125 -0.171875,0.96875 -0.53125,2.375 -0.15625,0.609375 -0.515625,1.03125 -0.953125,1.03125 -0.0625,0 -0.28125,0 -0.5,-0.125 0.25,-0.0625 0.46875,-0.265625 0.46875,-0.546875 0,-0.265625 -0.21875,-0.34375 -0.359375,-0.34375 -0.3125,0 -0.546875,0.25 -0.546875,0.578125 0,0.453125 0.484375,0.65625 0.921875,0.65625 0.671875,0 1.03125,-0.703125 1.046875,-0.75 0.125,0.359375 0.484375,0.75 1.078125,0.75 1.03125,0 1.59375,-1.28125 1.59375,-1.53125 0,-0.109375 -0.078125,-0.109375 -0.109375,-0.109375 -0.09375,0 -0.109375,0.046875 -0.140625,0.109375 -0.328125,1.078125 -1,1.3125 -1.3125,1.3125 -0.390625,0 -0.546875,-0.3125 -0.546875,-0.65625 0,-0.21875 0.046875,-0.4375 0.15625,-0.875 z m 0,0"
               id="id-41072925-c531-4b58-bc73-c17109a636dc" />
          </g>
        </g>
        <g
           style="fill:#000000;fill-opacity:1"
           id="id-1b17ab74-8cf2-4bd5-b46d-d79cc9393451">
          <g
             transform="translate(154.406,136.259)"
             id="g1676">
            <path
               style="stroke:none;stroke-width:0"
               d="M 3.515625,-1.265625 H 3.28125 c -0.015625,0.15625 -0.09375,0.5625 -0.1875,0.625 C 3.046875,-0.59375 2.515625,-0.59375 2.40625,-0.59375 H 1.125 c 0.734375,-0.640625 0.984375,-0.84375 1.390625,-1.171875 0.515625,-0.40625 1,-0.84375 1,-1.5 0,-0.84375 -0.734375,-1.359375 -1.625,-1.359375 -0.859375,0 -1.453125,0.609375 -1.453125,1.25 0,0.34375 0.296875,0.390625 0.375,0.390625 0.15625,0 0.359375,-0.125 0.359375,-0.375 0,-0.125 -0.046875,-0.375 -0.40625,-0.375 C 0.984375,-4.21875 1.453125,-4.375 1.78125,-4.375 c 0.703125,0 1.0625,0.546875 1.0625,1.109375 0,0.609375 -0.4375,1.078125 -0.65625,1.328125 L 0.515625,-0.265625 C 0.4375,-0.203125 0.4375,-0.1875 0.4375,0 h 2.875 z m 0,0"
               id="id-c8e4359d-0436-4847-9b13-3240aec7a798" />
          </g>
        </g>
      </g>
    </g>
    <g
       transform="matrix(4.66665,0,0,4.66665,1347.7854,853.15716)"
       ns1:version="1.6.0"
       ns1:texconverter="pdflatex"
       ns1:pdfconverter="inkscape"
       ns1:text="$x1$"
       ns1:preamble="/usr/share/inkscape/extensions/textext/default_packages.tex"
       ns1:scale="3.5"
       ns1:alignment="middle center"
       ns1:stroke-to-path="0"
       ns1:inkscapeversion="1.1.1"
       ns1:jacobian_sqrt="4.66665"
       id="g1897">
      <defs
         id="id-3f2d47a1-6f8d-41eb-979b-085535b7b4a6">
        <g
           id="id-f0d748d9-e448-4ed6-be2f-1cab679b2b84">
          <symbol
             overflow="visible"
             id="id-bbe85e6b-654d-4c7c-98fa-2f9fd944c1fe">
            <path
               style="stroke:none;stroke-width:0"
               d=""
               id="id-2e11eea7-1b54-4028-add8-d0755188673a" />
          </symbol>
          <symbol
             overflow="visible"
             id="id-a0fa5f0c-0932-4b2c-be74-022eb7146f81">
            <path
               style="stroke:none;stroke-width:0"
               d="M 3.328125,-3.015625 C 3.390625,-3.265625 3.625,-4.1875 4.3125,-4.1875 c 0.046875,0 0.296875,0 0.5,0.125 C 4.53125,-4 4.34375,-3.765625 4.34375,-3.515625 c 0,0.15625 0.109375,0.34375 0.375,0.34375 0.21875,0 0.53125,-0.171875 0.53125,-0.578125 0,-0.515625 -0.578125,-0.65625 -0.921875,-0.65625 -0.578125,0 -0.921875,0.53125 -1.046875,0.75 -0.25,-0.65625 -0.78125,-0.75 -1.078125,-0.75 -1.03125,0 -1.609375,1.28125 -1.609375,1.53125 0,0.109375 0.109375,0.109375 0.125,0.109375 0.078125,0 0.109375,-0.03125 0.125,-0.109375 0.34375,-1.0625 1,-1.3125 1.34375,-1.3125 0.1875,0 0.53125,0.09375 0.53125,0.671875 0,0.3125 -0.171875,0.96875 -0.53125,2.375 -0.15625,0.609375 -0.515625,1.03125 -0.953125,1.03125 -0.0625,0 -0.28125,0 -0.5,-0.125 0.25,-0.0625 0.46875,-0.265625 0.46875,-0.546875 0,-0.265625 -0.21875,-0.34375 -0.359375,-0.34375 -0.3125,0 -0.546875,0.25 -0.546875,0.578125 0,0.453125 0.484375,0.65625 0.921875,0.65625 0.671875,0 1.03125,-0.703125 1.046875,-0.75 0.125,0.359375 0.484375,0.75 1.078125,0.75 1.03125,0 1.59375,-1.28125 1.59375,-1.53125 0,-0.109375 -0.078125,-0.109375 -0.109375,-0.109375 -0.09375,0 -0.109375,0.046875 -0.140625,0.109375 -0.328125,1.078125 -1,1.3125 -1.3125,1.3125 -0.390625,0 -0.546875,-0.3125 -0.546875,-0.65625 0,-0.21875 0.046875,-0.4375 0.15625,-0.875 z m 0,0"
               id="id-66e1606b-378e-4e2f-b3f0-0ddb0f69c506" />
          </symbol>
          <symbol
             overflow="visible"
             id="id-889c3b4c-b80e-49a8-9757-dc9a44334b42">
            <path
               style="stroke:none;stroke-width:0"
               d=""
               id="id-aab98abd-b387-456b-94dc-2c71e9cf6a3c" />
          </symbol>
          <symbol
             overflow="visible"
             id="id-f50489f9-6bde-47a3-9796-58933152c4a5">
            <path
               style="stroke:none;stroke-width:0"
               d="m 2.9375,-6.375 c 0,-0.25 0,-0.265625 -0.234375,-0.265625 C 2.078125,-6 1.203125,-6 0.890625,-6 v 0.3125 c 0.203125,0 0.78125,0 1.296875,-0.265625 v 5.171875 c 0,0.359375 -0.03125,0.46875 -0.921875,0.46875 h -0.3125 V 0 c 0.34375,-0.03125 1.203125,-0.03125 1.609375,-0.03125 0.390625,0 1.265625,0 1.609375,0.03125 v -0.3125 h -0.3125 c -0.90625,0 -0.921875,-0.109375 -0.921875,-0.46875 z m 0,0"
               id="id-6fb22cff-05d1-41d1-8bbf-dd320e28b424" />
          </symbol>
        </g>
      </defs>
      <g
         id="id-38c95c95-f674-4d8e-ac06-8751e0756069"
         transform="translate(-149.009,-128.124)">
        <g
           style="fill:#000000;fill-opacity:1"
           id="id-9486dd5a-0e91-40aa-a593-9b9483074eb1">
          <g
             transform="translate(148.712,134.765)"
             id="g1889">
            <path
               style="stroke:none;stroke-width:0"
               d="M 3.328125,-3.015625 C 3.390625,-3.265625 3.625,-4.1875 4.3125,-4.1875 c 0.046875,0 0.296875,0 0.5,0.125 C 4.53125,-4 4.34375,-3.765625 4.34375,-3.515625 c 0,0.15625 0.109375,0.34375 0.375,0.34375 0.21875,0 0.53125,-0.171875 0.53125,-0.578125 0,-0.515625 -0.578125,-0.65625 -0.921875,-0.65625 -0.578125,0 -0.921875,0.53125 -1.046875,0.75 -0.25,-0.65625 -0.78125,-0.75 -1.078125,-0.75 -1.03125,0 -1.609375,1.28125 -1.609375,1.53125 0,0.109375 0.109375,0.109375 0.125,0.109375 0.078125,0 0.109375,-0.03125 0.125,-0.109375 0.34375,-1.0625 1,-1.3125 1.34375,-1.3125 0.1875,0 0.53125,0.09375 0.53125,0.671875 0,0.3125 -0.171875,0.96875 -0.53125,2.375 -0.15625,0.609375 -0.515625,1.03125 -0.953125,1.03125 -0.0625,0 -0.28125,0 -0.5,-0.125 0.25,-0.0625 0.46875,-0.265625 0.46875,-0.546875 0,-0.265625 -0.21875,-0.34375 -0.359375,-0.34375 -0.3125,0 -0.546875,0.25 -0.546875,0.578125 0,0.453125 0.484375,0.65625 0.921875,0.65625 0.671875,0 1.03125,-0.703125 1.046875,-0.75 0.125,0.359375 0.484375,0.75 1.078125,0.75 1.03125,0 1.59375,-1.28125 1.59375,-1.53125 0,-0.109375 -0.078125,-0.109375 -0.109375,-0.109375 -0.09375,0 -0.109375,0.046875 -0.140625,0.109375 -0.328125,1.078125 -1,1.3125 -1.3125,1.3125 -0.390625,0 -0.546875,-0.3125 -0.546875,-0.65625 0,-0.21875 0.046875,-0.4375 0.15625,-0.875 z m 0,0"
               id="id-ee2de133-8b22-4d31-aef8-2d625a438d91" />
          </g>
        </g>
        <g
           style="fill:#000000;fill-opacity:1"
           id="id-463a99e0-03c9-4fed-b4b4-060e9c866be8">
          <g
             transform="translate(154.406,134.765)"
             id="g1893">
            <path
               style="stroke:none;stroke-width:0"
               d="m 2.9375,-6.375 c 0,-0.25 0,-0.265625 -0.234375,-0.265625 C 2.078125,-6 1.203125,-6 0.890625,-6 v 0.3125 c 0.203125,0 0.78125,0 1.296875,-0.265625 v 5.171875 c 0,0.359375 -0.03125,0.46875 -0.921875,0.46875 h -0.3125 V 0 c 0.34375,-0.03125 1.203125,-0.03125 1.609375,-0.03125 0.390625,0 1.265625,0 1.609375,0.03125 v -0.3125 h -0.3125 c -0.90625,0 -0.921875,-0.109375 -0.921875,-0.46875 z m 0,0"
               id="id-8b760c9f-189c-4ed4-a36f-b086870f1545" />
          </g>
        </g>
      </g>
    </g>
    <g
       id="g7288">
      <path
         style="color:#000000;opacity:0.663665;fill:#808080;stroke-linecap:round;-inkscape-stroke:none"
         d="m 183.51172,257.14062 a 1.5,1.5 0 0 0 -1.5,1.5 1.5,1.5 0 0 0 1.5,1.5 H 1361.7109 a 1.5,1.5 0 0 0 1.5,-1.5 1.5,1.5 0 0 0 -1.5,-1.5 z"
         id="path6788" />
      <path
         id="path6786"
         style="color:#000000;opacity:1;fill:#808080;fill-rule:evenodd;stroke:#000000;-inkscape-stroke:none"
         d="m 183.39258,251.83984 c -3.74485,0 -6.80078,3.05595 -6.80078,6.80078 0,3.74485 3.05593,6.79883 6.80078,6.79883 3.74484,0 6.79883,-3.05398 6.79883,-6.79883 0,-3.74484 -3.05399,-6.80078 -6.79883,-6.80078 z" />
    </g>
    <g
       id="g7284">
      <path
         style="color:#000000;opacity:0.663665;fill:#808080;stroke-linecap:round;-inkscape-stroke:none"
         d="m 1361.7109,257.14062 a 1.5,1.5 0 0 0 -1.5,1.5 v 580.44532 a 1.5,1.5 0 0 0 1.5,1.5 1.5,1.5 0 0 0 1.5,-1.5 V 258.64062 a 1.5,1.5 0 0 0 -1.5,-1.5 z"
         id="path6601" />
      <path
         id="path6597"
         style="color:#000000;opacity:1;fill:#999999;fill-rule:evenodd;stroke:#000000;stroke-width:1.2pt;-inkscape-stroke:none"
         d="m 1361.7109,832.16602 c -3.7448,0 -6.7988,3.05593 -6.7988,6.80078 0,3.74484 3.054,6.79882 6.7988,6.79882 3.7449,0 6.8008,-3.05398 6.8008,-6.79882 0,-3.74485 -3.0559,-6.80078 -6.8008,-6.80078 z" />
    </g>
  </g>
  <g
     inkscape:groupmode="layer"
     id="vec-layer"
     inkscape:label="Components"
     style="display:inline;opacity:1">
    <path
       id="vecglow"
       style="color:#000000;mix-blend-mode:luminosity;fill:#44aa00;stroke:none;stroke-linecap:round;-inkscape-stroke:none;filter:url(#filter6225)"
       d="m 1361.7031,247.40039 c -0.2745,-0.005 -0.5506,2.5e-4 -0.8261,0.0156 -1.4697,0.0821 -2.9456,0.45396 -4.3458,1.14257 -4.8294,2.37516 -7.2165,7.77083 -6.0175,12.80274 L 182.4082,835.8418 a 2.5,2.5 0 0 0 -1.14062,3.34765 2.5,2.5 0 0 0 3.34765,1.14063 L 1352.7188,265.84766 c 3.2527,4.02361 8.9838,5.42652 13.8144,3.05078 5.6008,-2.75447 7.9244,-9.57115 5.1699,-15.17188 -1.9367,-3.938 -5.8815,-6.25495 -10,-6.32617 z"
       onmouseover=""
       onmouseout="this.style.opacity = 0.0" />
    <g
       id="g6152"
       transform="matrix(0.99760435,0,0,0.99437582,3.2888975,1.3913807)"
       style="stroke-width:1.00403"
       onmouseover="document.getElementById(&quot;vecglow&quot;).style.opacity = 1.0; document.getElementById(&quot;labels-layer&quot;).style.opacity = 1.0;"
       onmouseout="document.getElementById(&quot;vecglow&quot;).style.opacity = 0.0; document.getElementById(&quot;labels-layer&quot;).style.opacity = 0.4;"
       inkscape:transform-center-x="-594.41561"
       inkscape:transform-center-y="-292.00116">
      <path
         style="color:#000000;fill:#44aa00;stroke:#000000;stroke-width:1.00403;stroke-linecap:round;-inkscape-stroke:none"
         d="m 1362.5176,256.27344 a 2.5,2.5 0 0 0 -1.9082,0.12304 L 182.4082,835.8418 a 2.5,2.5 0 0 0 -1.14062,3.3477 2.5,2.5 0 0 0 3.34765,1.1406 L 1362.8145,260.88281 a 2.5,2.5 0 0 0 1.1406,-3.3457 2.5,2.5 0 0 0 -1.4375,-1.26367 z"
         id="path6010" />
      <path
         id="path6004"
         style="color:#000000;fill:#44aa00;fill-rule:evenodd;stroke:#000000;stroke-width:1.00403;stroke-miterlimit:4;stroke-dasharray:none"
         d="m 1361.7031,247.40039 c -0.2745,-0.005 -0.5506,2.2e-4 -0.8261,0.0156 -1.4697,0.0821 -2.9457,0.45396 -4.3458,1.14257 -5.6007,2.75448 -7.9224,9.57115 -5.1679,15.17188 2.7545,5.60073 9.5692,7.92244 15.1699,5.16797 5.6008,-2.75447 7.9244,-9.57115 5.1699,-15.17188 -1.9367,-3.938 -5.8815,-6.25495 -10,-6.32617 z" />
    </g>
    <g
       transform="matrix(4.66665,0,0,4.66665,1379.8387,214.71556)"
       ns1:version="1.6.0"
       ns1:texconverter="pdflatex"
       ns1:pdfconverter="inkscape"
       ns1:text="$X$"
       ns1:preamble="/usr/share/inkscape/extensions/textext/default_packages.tex"
       ns1:scale="3.5"
       ns1:alignment="middle center"
       ns1:stroke-to-path="0"
       ns1:inkscapeversion="1.1.1"
       ns1:jacobian_sqrt="4.66665"
       id="g2186"
       style="display:inline;opacity:1">
      <defs
         id="id-b0ab1af9-a32e-4ef4-98b7-f5dcf4c13d21">
        <g
           id="id-ec87050c-9227-4850-a332-6b1527214876">
          <symbol
             overflow="visible"
             id="id-f842297f-a233-45a1-94b1-2358484bd1c5">
            <path
               style="stroke:none;stroke-width:0"
               d=""
               id="id-8ae451be-1574-4e8a-aa92-59a45b71c807" />
          </symbol>
          <symbol
             overflow="visible"
             id="id-72d11395-f682-4a5e-bfe2-641223344f91">
            <path
               style="stroke:none;stroke-width:0"
               d="M 4.828125,-4.09375 4,-6.078125 c -0.03125,-0.078125 -0.046875,-0.125 -0.046875,-0.125 0,-0.0625 0.15625,-0.25 0.578125,-0.296875 0.109375,-0.015625 0.203125,-0.015625 0.203125,-0.1875 0,-0.125 -0.125,-0.125 -0.15625,-0.125 -0.40625,0 -0.828125,0.03125 -1.25,0.03125 -0.25,0 -0.859375,-0.03125 -1.109375,-0.03125 -0.0625,0 -0.1875,0 -0.1875,0.203125 C 2.03125,-6.5 2.140625,-6.5 2.265625,-6.5 c 0.59375,0 0.65625,0.09375 0.75,0.3125 l 1.171875,2.78125 -2.109375,2.265625 -0.125,0.109375 C 1.46875,-0.5 1,-0.34375 0.484375,-0.3125 c -0.125,0.015625 -0.21875,0.015625 -0.21875,0.203125 0,0.015625 0,0.109375 0.140625,0.109375 0.296875,0 0.625,-0.03125 0.921875,-0.03125 C 1.703125,-0.03125 2.09375,0 2.453125,0 2.515625,0 2.625,0 2.625,-0.203125 2.625,-0.296875 2.53125,-0.3125 2.515625,-0.3125 c -0.09375,0 -0.40625,-0.03125 -0.40625,-0.3125 0,-0.15625 0.15625,-0.3125 0.265625,-0.4375 L 3.40625,-2.140625 4.296875,-3.125 l 1,2.390625 c 0.046875,0.109375 0.0625,0.109375 0.0625,0.140625 0,0.078125 -0.203125,0.25 -0.578125,0.28125 C 4.671875,-0.296875 4.578125,-0.296875 4.578125,-0.125 4.578125,0 4.6875,0 4.71875,0 5,0 5.703125,-0.03125 5.984375,-0.03125 6.234375,-0.03125 6.84375,0 7.09375,0 c 0.0625,0 0.1875,0 0.1875,-0.1875 0,-0.125 -0.109375,-0.125 -0.1875,-0.125 -0.65625,0 -0.6875,-0.03125 -0.859375,-0.4375 C 5.859375,-1.671875 5.1875,-3.234375 4.953125,-3.828125 5.625,-4.53125 6.671875,-5.71875 7,-5.984375 7.28125,-6.234375 7.671875,-6.46875 8.265625,-6.5 c 0.125,-0.015625 0.21875,-0.015625 0.21875,-0.203125 0,0 0,-0.109375 -0.125,-0.109375 -0.296875,0 -0.640625,0.03125 -0.9375,0.03125 -0.375,0 -0.75,-0.03125 -1.109375,-0.03125 -0.0625,0 -0.1875,0 -0.1875,0.203125 0,0.0625 0.046875,0.09375 0.109375,0.109375 0.09375,0.015625 0.40625,0.03125 0.40625,0.3125 0,0.140625 -0.109375,0.265625 -0.1875,0.359375 z m 0,0"
               id="id-8f2b9cc3-c288-4201-8c3b-85551f1a7de8" />
          </symbol>
        </g>
      </defs>
      <g
         id="id-a5bea489-186d-47b7-b886-bed288eb3786"
         transform="translate(-148.978,-127.953)">
        <g
           style="fill:#000000;fill-opacity:1"
           id="id-e9181777-8951-48ed-92e4-af339745c1f1">
          <g
             transform="translate(148.712,134.765)"
             id="g2182">
            <path
               style="stroke:none;stroke-width:0"
               d="M 4.828125,-4.09375 4,-6.078125 c -0.03125,-0.078125 -0.046875,-0.125 -0.046875,-0.125 0,-0.0625 0.15625,-0.25 0.578125,-0.296875 0.109375,-0.015625 0.203125,-0.015625 0.203125,-0.1875 0,-0.125 -0.125,-0.125 -0.15625,-0.125 -0.40625,0 -0.828125,0.03125 -1.25,0.03125 -0.25,0 -0.859375,-0.03125 -1.109375,-0.03125 -0.0625,0 -0.1875,0 -0.1875,0.203125 C 2.03125,-6.5 2.140625,-6.5 2.265625,-6.5 c 0.59375,0 0.65625,0.09375 0.75,0.3125 l 1.171875,2.78125 -2.109375,2.265625 -0.125,0.109375 C 1.46875,-0.5 1,-0.34375 0.484375,-0.3125 c -0.125,0.015625 -0.21875,0.015625 -0.21875,0.203125 0,0.015625 0,0.109375 0.140625,0.109375 0.296875,0 0.625,-0.03125 0.921875,-0.03125 C 1.703125,-0.03125 2.09375,0 2.453125,0 2.515625,0 2.625,0 2.625,-0.203125 2.625,-0.296875 2.53125,-0.3125 2.515625,-0.3125 c -0.09375,0 -0.40625,-0.03125 -0.40625,-0.3125 0,-0.15625 0.15625,-0.3125 0.265625,-0.4375 L 3.40625,-2.140625 4.296875,-3.125 l 1,2.390625 c 0.046875,0.109375 0.0625,0.109375 0.0625,0.140625 0,0.078125 -0.203125,0.25 -0.578125,0.28125 C 4.671875,-0.296875 4.578125,-0.296875 4.578125,-0.125 4.578125,0 4.6875,0 4.71875,0 5,0 5.703125,-0.03125 5.984375,-0.03125 6.234375,-0.03125 6.84375,0 7.09375,0 c 0.0625,0 0.1875,0 0.1875,-0.1875 0,-0.125 -0.109375,-0.125 -0.1875,-0.125 -0.65625,0 -0.6875,-0.03125 -0.859375,-0.4375 C 5.859375,-1.671875 5.1875,-3.234375 4.953125,-3.828125 5.625,-4.53125 6.671875,-5.71875 7,-5.984375 7.28125,-6.234375 7.671875,-6.46875 8.265625,-6.5 c 0.125,-0.015625 0.21875,-0.015625 0.21875,-0.203125 0,0 0,-0.109375 -0.125,-0.109375 -0.296875,0 -0.640625,0.03125 -0.9375,0.03125 -0.375,0 -0.75,-0.03125 -1.109375,-0.03125 -0.0625,0 -0.1875,0 -0.1875,0.203125 0,0.0625 0.046875,0.09375 0.109375,0.109375 0.09375,0.015625 0.40625,0.03125 0.40625,0.3125 0,0.140625 -0.109375,0.265625 -0.1875,0.359375 z m 0,0"
               id="id-cac6b30d-1d9b-4d47-810b-f8c751845741" />
          </g>
        </g>
      </g>
    </g>
  </g>
</svg>
