<?xml version="1.0" encoding="utf-8" standalone="no"?>
<!DOCTYPE svg PUBLIC "-//W3C//DTD SVG 1.1//EN"
  "http://www.w3.org/Graphics/SVG/1.1/DTD/svg11.dtd">
<!-- Created with matplotlib (https://matplotlib.org/) -->
<svg height="266.112pt" version="1.1" viewBox="0 0 357.12 266.112" width="357.12pt" xmlns="http://www.w3.org/2000/svg" xmlns:xlink="http://www.w3.org/1999/xlink">
 <metadata>
  <rdf:RDF xmlns:cc="http://creativecommons.org/ns#" xmlns:dc="http://purl.org/dc/elements/1.1/" xmlns:rdf="http://www.w3.org/1999/02/22-rdf-syntax-ns#">
   <cc:Work>
    <dc:type rdf:resource="http://purl.org/dc/dcmitype/StillImage"/>
    <dc:date>2020-10-16T12:12:51.100826</dc:date>
    <dc:format>image/svg+xml</dc:format>
    <dc:creator>
     <cc:Agent>
      <dc:title>Matplotlib v3.3.2, https://matplotlib.org/</dc:title>
     </cc:Agent>
    </dc:creator>
   </cc:Work>
  </rdf:RDF>
 </metadata>
 <defs>
  <style type="text/css">*{stroke-linecap:butt;stroke-linejoin:round;}</style>
 </defs>
 <g id="figure_1">
  <g id="patch_1">
   <path d="M 0 266.112 
L 357.12 266.112 
L 357.12 0 
L 0 0 
z
" style="fill:none;"/>
  </g>
  <g id="axes_1">
   <g id="line2d_1">
    <path clip-path="url(#p1d7605beeb)" d="M 2.017627 2.000842 
L 7.340513 20.446776 
L 12.663398 37.778633 
L 16.211989 48.714273 
L 19.760579 59.154767 
L 23.30917 69.100116 
L 26.85776 78.55032 
L 30.40635 87.505378 
L 33.954941 95.96529 
L 37.503531 103.930058 
L 41.052122 111.39968 
L 44.600712 118.374156 
L 48.149302 124.853487 
L 51.697893 130.837673 
L 55.246483 136.326713 
L 58.795074 141.320608 
L 62.343664 145.819358 
L 65.892254 149.822962 
L 69.440845 153.331421 
L 72.989435 156.344734 
L 76.538026 158.862902 
L 80.086616 160.885925 
L 81.860911 161.711756 
L 83.635207 162.413802 
L 85.409502 162.992061 
L 87.183797 163.446534 
L 88.958092 163.77722 
L 90.732387 163.98412 
L 92.506683 164.067234 
L 94.280978 164.026561 
L 96.055273 163.862102 
L 97.829568 163.573857 
L 99.603863 163.161825 
L 101.378159 162.626007 
L 103.152454 161.966403 
L 104.926749 161.183012 
L 108.475339 159.244871 
L 112.02393 156.811585 
L 115.57252 153.883154 
L 119.121111 150.459577 
L 122.669701 146.540855 
L 126.218291 142.126988 
L 129.766882 137.217975 
L 133.315472 131.813817 
L 136.864063 125.914513 
L 140.412653 119.520064 
L 143.961244 112.630469 
L 147.509834 105.24573 
L 151.058424 97.365844 
L 154.607015 88.990814 
L 158.155605 80.120638 
L 161.704196 70.755316 
L 165.252786 60.89485 
L 168.801376 50.539237 
L 172.349967 39.68848 
L 174.124262 34.077422 
L 175.898557 32.293989 
L 181.221443 54.464124 
L 186.544328 75.520181 
L 191.867214 95.462162 
L 197.1901 114.290065 
L 202.512985 132.003892 
L 206.061576 143.194178 
L 209.610166 153.889318 
L 213.158756 164.089313 
L 216.707347 173.794163 
L 220.255937 183.003867 
L 223.804528 191.718426 
L 227.353118 199.937839 
L 230.901709 207.662108 
L 234.450299 214.89123 
L 237.998889 221.625208 
L 241.54748 227.86404 
L 245.09607 233.607726 
L 248.644661 238.856267 
L 252.193251 243.609663 
L 255.741841 247.867913 
L 259.290432 251.631018 
L 262.839022 254.898978 
L 266.387613 257.671792 
L 269.936203 259.949461 
L 273.484793 261.731984 
L 275.259089 262.437566 
L 277.033384 263.019362 
L 278.807679 263.477372 
L 280.581974 263.811595 
L 282.356269 264.022032 
L 284.130565 264.108682 
L 285.90486 264.071546 
L 287.679155 263.910624 
L 289.45345 263.625915 
L 291.227746 263.21742 
L 293.002041 262.685139 
L 294.776336 262.029072 
L 296.550631 261.249218 
L 300.099222 259.318151 
L 303.647812 256.891938 
L 307.196402 253.97058 
L 310.744993 250.554077 
L 314.293583 246.642428 
L 317.842174 242.235635 
L 321.390764 237.333695 
L 324.939354 231.93661 
L 328.487945 226.04438 
L 332.036535 219.657005 
L 335.585126 212.774484 
L 339.133716 205.396817 
L 342.682306 197.524006 
L 346.230897 189.156049 
L 349.779487 180.292946 
L 353.328078 170.934698 
L 355.102373 166.069895 
L 355.102373 166.069895 
" style="fill:none;stroke:#1f77b4;stroke-linecap:square;stroke-width:1.5;"/>
   </g>
   <g id="line2d_2">
    <path clip-path="url(#p1d7605beeb)" d="M 2.017627 2.000842 
L 7.340513 20.446776 
L 12.663398 37.778633 
L 16.211989 48.714273 
L 19.760579 59.154767 
L 23.30917 69.100116 
L 26.85776 78.55032 
L 30.40635 87.505378 
L 33.954941 95.96529 
L 37.503531 103.930058 
L 41.052122 111.39968 
L 44.600712 118.374156 
L 48.149302 124.853487 
L 51.697893 130.837673 
L 55.246483 136.326713 
L 58.795074 141.320608 
L 62.343664 145.819358 
L 65.892254 149.822962 
L 69.440845 153.331421 
L 72.989435 156.344734 
L 76.538026 158.862902 
L 80.086616 160.885925 
L 85.409502 163.595246 
L 88.958092 165.472035 
L 94.280978 168.284402 
L 216.707347 232.197987 
L 218.481642 233.056085 
L 222.030233 234.922624 
L 227.353118 237.742214 
L 273.484793 261.731984 
L 275.259089 262.437566 
L 277.033384 263.019362 
L 278.807679 263.477372 
L 280.581974 263.811595 
L 282.356269 264.022032 
L 284.130565 264.108682 
L 285.90486 264.071546 
L 287.679155 263.910624 
L 289.45345 263.625915 
L 291.227746 263.21742 
L 293.002041 262.685139 
L 294.776336 262.029072 
L 296.550631 261.249218 
L 300.099222 259.318151 
L 303.647812 256.891938 
L 307.196402 253.97058 
L 310.744993 250.554077 
L 314.293583 246.642428 
L 317.842174 242.235635 
L 321.390764 237.333695 
L 324.939354 231.93661 
L 328.487945 226.04438 
L 332.036535 219.657005 
L 335.585126 212.774484 
L 339.133716 205.396817 
L 342.682306 197.524006 
L 346.230897 189.156049 
L 349.779487 180.292946 
L 353.328078 170.934698 
L 355.102373 166.069895 
L 355.102373 166.069895 
" style="fill:none;stroke:#ff7f0e;stroke-linecap:square;stroke-width:1.5;"/>
   </g>
  </g>
 </g>
 <defs>
  <clipPath id="p1d7605beeb">
   <rect height="266.112" width="357.12" x="0" y="-0"/>
  </clipPath>
 </defs>
</svg>
