<?xml version="1.0" encoding="utf-8" standalone="no"?>
<!DOCTYPE svg PUBLIC "-//W3C//DTD SVG 1.1//EN"
  "http://www.w3.org/Graphics/SVG/1.1/DTD/svg11.dtd">
<!-- Created with matplotlib (https://matplotlib.org/) -->
<svg height="280.512pt" version="1.1" viewBox="0 0 371.52 280.512" width="371.52pt" xmlns="http://www.w3.org/2000/svg" xmlns:xlink="http://www.w3.org/1999/xlink">
 <metadata>
  <rdf:RDF xmlns:cc="http://creativecommons.org/ns#" xmlns:dc="http://purl.org/dc/elements/1.1/" xmlns:rdf="http://www.w3.org/1999/02/22-rdf-syntax-ns#">
   <cc:Work>
    <dc:type rdf:resource="http://purl.org/dc/dcmitype/StillImage"/>
    <dc:date>2020-10-15T14:42:23.960779</dc:date>
    <dc:format>image/svg+xml</dc:format>
    <dc:creator>
     <cc:Agent>
      <dc:title>Matplotlib v3.3.2, https://matplotlib.org/</dc:title>
     </cc:Agent>
    </dc:creator>
   </cc:Work>
  </rdf:RDF>
 </metadata>
 <defs>
  <style type="text/css">*{stroke-linecap:butt;stroke-linejoin:round;}</style>
 </defs>
 <g id="figure_1">
  <g id="patch_1">
   <path d="M 0 280.512 
L 371.52 280.512 
L 371.52 0 
L 0 0 
z
" style="fill:none;"/>
  </g>
  <g id="axes_1">
   <g id="line2d_1">
    <path clip-path="url(#p14d4bdaf0e)" d="M 23.432727 19.296 
L 28.327017 36.321208 
L 33.221307 52.318146 
L 38.115596 67.286814 
L 43.009886 81.227213 
L 46.272746 89.949551 
L 49.535605 98.21488 
L 52.798465 106.023201 
L 56.061325 113.374513 
L 59.324185 120.268816 
L 62.587044 126.706111 
L 65.849904 132.686396 
L 69.112764 138.209673 
L 72.375624 143.275942 
L 75.638483 147.885201 
L 78.901343 152.037452 
L 82.164203 155.732694 
L 85.427063 158.970927 
L 88.689922 161.752152 
L 91.952782 164.076368 
L 95.215642 165.943575 
L 98.478502 167.353773 
L 101.741361 168.306963 
L 103.372791 168.61218 
L 105.004221 168.803144 
L 106.635651 168.879856 
L 108.267081 168.842316 
L 109.898511 168.690524 
L 111.529941 168.42448 
L 113.16137 168.044183 
L 116.42423 166.940833 
L 119.68709 165.380475 
L 122.94995 163.363108 
L 126.21281 160.888732 
L 129.475669 157.957347 
L 132.738529 154.568954 
L 136.001389 150.723552 
L 139.264249 146.421141 
L 142.527108 141.661722 
L 145.789968 136.445293 
L 149.052828 130.771856 
L 152.315688 124.64141 
L 155.578547 118.053956 
L 158.841407 111.009493 
L 162.104267 103.508021 
L 165.367127 95.54954 
L 168.629986 87.134051 
L 171.892846 78.261552 
L 175.155706 68.932045 
L 180.049995 54.080894 
L 181.681425 48.902005 
L 183.312855 47.255934 
L 188.207145 67.718501 
L 193.101434 87.152797 
L 197.995724 105.558824 
L 202.890014 122.936581 
L 207.784303 139.286069 
L 212.678593 154.607287 
L 217.572883 168.900235 
L 220.835742 177.857606 
L 224.098602 186.357969 
L 227.361462 194.401323 
L 230.624322 201.987668 
L 233.887181 209.117004 
L 237.150041 215.789332 
L 240.412901 222.00465 
L 243.675761 227.76296 
L 246.93862 233.064262 
L 250.20148 237.908554 
L 253.46434 242.295838 
L 256.7272 246.226113 
L 259.990059 249.69938 
L 263.252919 252.715637 
L 266.515779 255.274886 
L 269.778639 257.377127 
L 273.041498 259.022358 
L 276.304358 260.210581 
L 279.567218 260.941795 
L 281.198648 261.136023 
L 282.830078 261.216 
L 284.461508 261.181724 
L 286.092937 261.033197 
L 287.724367 260.770416 
L 289.355797 260.393384 
L 292.618657 259.296563 
L 295.881517 257.742734 
L 299.144376 255.731895 
L 302.407236 253.264048 
L 305.670096 250.339192 
L 308.932956 246.957327 
L 312.195815 243.118454 
L 315.458675 238.822572 
L 318.721535 234.069681 
L 321.984395 228.859781 
L 325.247254 223.192873 
L 328.510114 217.068956 
L 331.772974 210.48803 
L 335.035834 203.450096 
L 338.298693 195.955152 
L 341.561553 188.0032 
L 344.824413 179.59424 
L 348.087273 170.72827 
L 348.087273 170.72827 
" style="fill:none;stroke:#1f77b4;stroke-linecap:square;stroke-width:1.5;"/>
   </g>
   <g id="line2d_2">
    <path clip-path="url(#p14d4bdaf0e)" d="M 23.432727 19.296 
L 28.327017 36.321208 
L 33.221307 52.318146 
L 38.115596 67.286814 
L 43.009886 81.227213 
L 46.272746 89.949551 
L 49.535605 98.21488 
L 52.798465 106.023201 
L 56.061325 113.374513 
L 59.324185 120.268816 
L 62.587044 126.706111 
L 65.849904 132.686396 
L 69.112764 138.209673 
L 72.375624 143.275942 
L 75.638483 147.885201 
L 78.901343 152.037452 
L 82.164203 155.732694 
L 85.427063 158.970927 
L 88.689922 161.752152 
L 91.952782 164.076368 
L 95.215642 165.943575 
L 100.109931 168.444222 
L 103.372791 170.176458 
L 108.267081 172.772214 
L 238.781471 241.165643 
L 240.412901 241.954439 
L 243.675761 243.682545 
L 248.57005 246.281211 
L 273.041498 259.022358 
L 276.304358 260.210581 
L 279.567218 260.941795 
L 281.198648 261.136023 
L 282.830078 261.216 
L 284.461508 261.181724 
L 286.092937 261.033197 
L 287.724367 260.770416 
L 289.355797 260.393384 
L 292.618657 259.296563 
L 295.881517 257.742734 
L 299.144376 255.731895 
L 302.407236 253.264048 
L 305.670096 250.339192 
L 308.932956 246.957327 
L 312.195815 243.118454 
L 315.458675 238.822572 
L 318.721535 234.069681 
L 321.984395 228.859781 
L 325.247254 223.192873 
L 328.510114 217.068956 
L 331.772974 210.48803 
L 335.035834 203.450096 
L 338.298693 195.955152 
L 341.561553 188.0032 
L 344.824413 179.59424 
L 348.087273 170.72827 
L 348.087273 170.72827 
" style="fill:none;stroke:#ff7f0e;stroke-linecap:square;stroke-width:1.5;"/>
   </g>
  </g>
 </g>
 <defs>
  <clipPath id="p14d4bdaf0e">
   <rect height="266.112" width="357.12" x="7.2" y="7.2"/>
  </clipPath>
 </defs>
</svg>
